<?xml version="1.0" encoding="UTF-8" standalone="no"?>
<!-- Generator: Adobe Illustrator 19.0.0, SVG Export Plug-In . SVG Version: 6.00 Build 0)  -->

<svg
   xmlns:dc="http://purl.org/dc/elements/1.1/"
   xmlns:cc="http://creativecommons.org/ns#"
   xmlns:rdf="http://www.w3.org/1999/02/22-rdf-syntax-ns#"
   xmlns:svg="http://www.w3.org/2000/svg"
   xmlns="http://www.w3.org/2000/svg"
   xmlns:sodipodi="http://sodipodi.sourceforge.net/DTD/sodipodi-0.dtd"
   xmlns:inkscape="http://www.inkscape.org/namespaces/inkscape"
   version="1.1"
   id="Capa_1"
   x="0px"
   y="0px"
   viewBox="0 0 512 512"
   style="enable-background:new 0 0 512 512;"
   xml:space="preserve"
   sodipodi:docname="icon.svg"
   inkscape:export-filename="/media/water/files/Projects/GMAP/viscpu/resources/icon-white.png"
   inkscape:export-xdpi="300"
   inkscape:export-ydpi="300"
   inkscape:version="0.92.5 (2060ec1f9f, 2020-04-08)"><metadata
   id="metadata3847"><rdf:RDF><cc:Work
       rdf:about=""><dc:format>image/svg+xml</dc:format><dc:type
         rdf:resource="http://purl.org/dc/dcmitype/StillImage" /><dc:title></dc:title></cc:Work></rdf:RDF></metadata><defs
   id="defs3845" /><sodipodi:namedview
   pagecolor="#ffffff"
   bordercolor="#666666"
   borderopacity="1"
   objecttolerance="10"
   gridtolerance="10"
   guidetolerance="10"
   inkscape:pageopacity="0"
   inkscape:pageshadow="2"
   inkscape:window-width="1920"
   inkscape:window-height="1023"
   id="namedview3843"
   showgrid="false"
   inkscape:zoom="0.56278518"
   inkscape:cx="503.18318"
   inkscape:cy="42.723164"
   inkscape:window-x="0"
   inkscape:window-y="28"
   inkscape:window-maximized="1"
   inkscape:current-layer="Capa_1" />

<g
   id="g3810"
   style="fill:#e65100;fill-opacity:1"
   transform="matrix(0.95835445,0,0,0.95835445,10.661261,10.661261)">
	<g
   id="g3808"
   style="fill:#e65100;fill-opacity:1">
		<path
   d="m 486.4,281.6 c 15.36,0 25.6,-10.24 25.6,-25.6 0,-12.8 -10.24,-25.6 -25.6,-25.6 h -25.6 v -51.2 h 25.6 c 15.36,0 25.6,-10.24 25.6,-25.6 0,-12.8 -10.24,-25.6 -25.6,-25.6 h -25.6 v -25.6 c 0,-28.16 -23.04,-51.2 -51.2,-51.2 H 384 V 25.6 C 384,12.8 373.76,0 358.4,0 345.6,0 332.8,10.24 332.8,25.6 V 51.2 H 281.6 V 25.6 C 281.6,12.8 271.36,0 256,0 240.64,0 230.4,10.24 230.4,25.6 V 51.2 H 179.2 V 25.6 C 179.2,12.8 168.96,0 153.6,0 138.24,0 128,10.24 128,25.6 v 25.6 h -25.6 c -28.16,0 -51.2,23.04 -51.2,51.2 V 128 H 25.6 C 10.24,128 0,138.24 0,153.6 c 0,12.8 10.24,25.6 25.6,25.6 h 25.6 v 51.2 H 25.6 C 10.24,230.4 0,240.64 0,256 c 0,12.8 10.24,25.6 25.6,25.6 h 25.6 v 51.2 H 25.6 C 10.24,332.8 0,343.04 0,358.4 0,371.2 10.24,384 25.6,384 h 25.6 v 25.6 c 0,28.16 23.04,51.2 51.2,51.2 H 128 v 25.6 c 0,12.8 10.24,25.6 25.6,25.6 15.36,0 25.6,-10.24 25.6,-25.6 v -25.6 h 51.2 v 25.6 c 0,12.8 10.24,25.6 25.6,25.6 15.36,0 25.6,-10.24 25.6,-25.6 v -25.6 h 51.2 v 25.6 c 0,12.8 10.24,25.6 25.6,25.6 12.8,0 25.6,-10.24 25.6,-25.6 v -25.6 h 25.6 c 28.16,0 51.2,-23.04 51.2,-51.2 V 384 h 25.6 c 15.36,0 25.6,-10.24 25.6,-25.6 0,-12.8 -10.24,-25.6 -25.6,-25.6 h -25.6 v -51.2 z m -76.8,128 H 102.4 V 102.4 h 307.2 z"
   id="path3806"
   style="fill:#e65100;fill-opacity:1"
   inkscape:connector-curvature="0" />
	</g>
</g>
<g
   id="g3812">
</g>
<g
   id="g3814">
</g>
<g
   id="g3816">
</g>
<g
   id="g3818">
</g>
<g
   id="g3820">
</g>
<g
   id="g3822">
</g>
<g
   id="g3824">
</g>
<g
   id="g3826">
</g>
<g
   id="g3828">
</g>
<g
   id="g3830">
</g>
<g
   id="g3832">
</g>
<g
   id="g3834">
</g>
<g
   id="g3836">
</g>
<g
   id="g3838">
</g>
<g
   id="g3840">
</g>
<g
   id="g3986"
   transform="matrix(0.53692064,0,0,0.53692064,124.76317,124.76317)"
   style="fill:#e65100;fill-opacity:1"><g
     id="g3930"
     style="fill:#e65100;fill-opacity:1">
	<path
   id="path3928"
   d="m 244.425,98.725 c -93.4,0 -178.1,51.1 -240.6,134.1 -5.1,6.8 -5.1,16.3 0,23.1 62.5,83.1 147.2,134.2 240.6,134.2 93.4,0 178.1,-51.1 240.6,-134.1 5.1,-6.8 5.1,-16.3 0,-23.1 -62.5,-83.1 -147.2,-134.2 -240.6,-134.2 z m 6.7,248.3 c -62,3.9 -113.2,-47.2 -109.3,-109.3 3.2,-51.2 44.7,-92.7 95.9,-95.9 62,-3.9 113.2,47.2 109.3,109.3 -3.3,51.1 -44.8,92.6 -95.9,95.9 z m -3.1,-47.4 c -33.4,2.1 -61,-25.4 -58.8,-58.8 1.7,-27.6 24.1,-49.9 51.7,-51.7 33.4,-2.1 61,25.4 58.8,58.8 -1.8,27.7 -24.2,50 -51.7,51.7 z"
   inkscape:connector-curvature="0"
   style="fill:#e65100;fill-opacity:1" />
</g><g
     id="g3932"
     style="fill:#e65100;fill-opacity:1">
</g><g
     id="g3934"
     style="fill:#e65100;fill-opacity:1">
</g><g
     id="g3936"
     style="fill:#e65100;fill-opacity:1">
</g><g
     id="g3938"
     style="fill:#e65100;fill-opacity:1">
</g><g
     id="g3940"
     style="fill:#e65100;fill-opacity:1">
</g><g
     id="g3942"
     style="fill:#e65100;fill-opacity:1">
</g><g
     id="g3944"
     style="fill:#e65100;fill-opacity:1">
</g><g
     id="g3946"
     style="fill:#e65100;fill-opacity:1">
</g><g
     id="g3948"
     style="fill:#e65100;fill-opacity:1">
</g><g
     id="g3950"
     style="fill:#e65100;fill-opacity:1">
</g><g
     id="g3952"
     style="fill:#e65100;fill-opacity:1">
</g><g
     id="g3954"
     style="fill:#e65100;fill-opacity:1">
</g><g
     id="g3956"
     style="fill:#e65100;fill-opacity:1">
</g><g
     id="g3958"
     style="fill:#e65100;fill-opacity:1">
</g><g
     id="g3960"
     style="fill:#e65100;fill-opacity:1">
</g></g></svg>